HIERARCHY
ROOT reference
{
  OFFSET -65.3212 -1.93545 -120.338
  CHANNELS 6 Xposition Yposition Zposition Zrotation Xrotation Yrotation
  JOINT Hips
  {
    OFFSET 0 78.7191 0
    CHANNELS 6 Xposition Yposition Zposition Zrotation Xrotation Yrotation
    JOINT Chest
    {
      OFFSET 0 8.7983 -4.7612
      CHANNELS 6 Xposition Yposition Zposition Zrotation Xrotation Yrotation
      JOINT Chest2
      {
        OFFSET 0 8.0291 0.4195
        CHANNELS 6 Xposition Yposition Zposition Zrotation Xrotation Yrotation
        JOINT Chest3
        {
          OFFSET 0 9.9351 -2.2114
          CHANNELS 6 Xposition Yposition Zposition Zrotation Xrotation Yrotation
          JOINT Neck
          {
            OFFSET 0 22.3885 -0.4656
            CHANNELS 6 Xposition Yposition Zposition Zrotation Xrotation Yrotation
            JOINT Head
            {
              OFFSET -0.0001 12.643 3.4389
              CHANNELS 6 Xposition Yposition Zposition Zrotation Xrotation Yrotation
              End Site
              {
                OFFSET 0.0001 17.6655 0.5274
              }
            }
          }
          JOINT LeftCollar
          {
            OFFSET 2.2603 21.606 7.4023
            CHANNELS 6 Xposition Yposition Zposition Zrotation Xrotation Yrotation
            JOINT LeftShoulder
            {
              OFFSET 13.5163 -1.1332 -5.0146
              CHANNELS 6 Xposition Yposition Zposition Zrotation Xrotation Yrotation
              JOINT LeftElbow
              {
                OFFSET -0.0995 -28.05 -0.2431
                CHANNELS 6 Xposition Yposition Zposition Zrotation Xrotation Yrotation
                JOINT LeftWrist
                {
                  OFFSET 0.0679 -23.3996 -0.1402
                  CHANNELS 6 Xposition Yposition Zposition Zrotation Xrotation Yrotation
                  JOINT LeftFinger1
                  {
                    OFFSET 0.7932 -9.069 2.5189
                    CHANNELS 6 Xposition Yposition Zposition Zrotation Xrotation Yrotation
                    JOINT LeftFinger11
                    {
                      OFFSET -0.8272 -3.3923 0.5977
                      CHANNELS 6 Xposition Yposition Zposition Zrotation Xrotation Yrotation
                      JOINT LeftFinger12
                      {
                        OFFSET -0.5649 -2.3158 0.4082
                        CHANNELS 6 Xposition Yposition Zposition Zrotation Xrotation Yrotation
                        End Site
                        {
                          OFFSET -0.4919 -1.6479 0.2673
                        }
                      }
                    }
                  }
                  JOINT LeftFinger2
                  {
                    OFFSET 0.9159 -9.2044 0.2193
                    CHANNELS 6 Xposition Yposition Zposition Zrotation Xrotation Yrotation
                    JOINT LeftFinger21
                    {
                      OFFSET 0.0117 -4.1944 -0.0248
                      CHANNELS 6 Xposition Yposition Zposition Zrotation Xrotation Yrotation
                      JOINT LeftFinger22
                      {
                        OFFSET 0.0071 -2.3249 -0.0142
                        CHANNELS 6 Xposition Yposition Zposition Zrotation Xrotation Yrotation
                        End Site
                        {
                          OFFSET -0.1475 -2.0882 0.0028
                        }
                      }
                    }
                  }
                  JOINT LeftFinger3
                  {
                    OFFSET 0.6113 -8.7231 -2.0637
                    CHANNELS 6 Xposition Yposition Zposition Zrotation Xrotation Yrotation
                    JOINT LeftFinger31
                    {
                      OFFSET -0.1927 -3.8059 -0.2383
                      CHANNELS 6 Xposition Yposition Zposition Zrotation Xrotation Yrotation
                      JOINT LeftFinger32
                      {
                        OFFSET -0.1091 -2.1688 -0.1362
                        CHANNELS 6 Xposition Yposition Zposition Zrotation Xrotation Yrotation
                        End Site
                        {
                          OFFSET -0.2358 -1.9176 -0.0906
                        }
                      }
                    }
                  }
                  JOINT LeftFinger4
                  {
                    OFFSET -0.6151 -8.0947 -3.5641
                    CHANNELS 6 Xposition Yposition Zposition Zrotation Xrotation Yrotation
                    JOINT LeftFinger41
                    {
                      OFFSET -0.4882 -2.341 -0.6462
                      CHANNELS 6 Xposition Yposition Zposition Zrotation Xrotation Yrotation
                      JOINT LeftFinger42
                      {
                        OFFSET -0.3575 -1.7167 -0.4742
                        CHANNELS 6 Xposition Yposition Zposition Zrotation Xrotation Yrotation
                        End Site
                        {
                          OFFSET -0.4187 -1.5237 -0.3496
                        }
                      }
                    }
                  }
                  JOINT LeftFinger0
                  {
                    OFFSET -1.42 -1.8761 1.4223
                    CHANNELS 6 Xposition Yposition Zposition Zrotation Xrotation Yrotation
                    JOINT LeftFinger01
                    {
                      OFFSET -1.1471 -3.4929 2.6334
                      CHANNELS 6 Xposition Yposition Zposition Zrotation Xrotation Yrotation
                      JOINT LeftFinger02
                      {
                        OFFSET -0.823 -2.3 1.6571
                        CHANNELS 6 Xposition Yposition Zposition Zrotation Xrotation Yrotation
                        End Site
                        {
                          OFFSET -0.5822 -1.6914 1.1582
                        }
                      }
                    }
                  }
                }
              }
            }
          }
          JOINT RightCollar
          {
            OFFSET -2.2603 21.606 7.4023
            CHANNELS 6 Xposition Yposition Zposition Zrotation Xrotation Yrotation
            JOINT RightShoulder
            {
              OFFSET -13.5187 -1.1334 -5.0155
              CHANNELS 6 Xposition Yposition Zposition Zrotation Xrotation Yrotation
              JOINT RightElbow
              {
                OFFSET 0.0994 -28.0499 -0.2431
                CHANNELS 6 Xposition Yposition Zposition Zrotation Xrotation Yrotation
                JOINT RightWrist
                {
                  OFFSET -0.0679 -23.3996 -0.1402
                  CHANNELS 6 Xposition Yposition Zposition Zrotation Xrotation Yrotation
                  JOINT RightFinger1
                  {
                    OFFSET -0.7932 -9.0691 2.5189
                    CHANNELS 6 Xposition Yposition Zposition Zrotation Xrotation Yrotation
                    JOINT RightFinger11
                    {
                      OFFSET 0.8272 -3.3923 0.5977
                      CHANNELS 6 Xposition Yposition Zposition Zrotation Xrotation Yrotation
                      JOINT RightFinger12
                      {
                        OFFSET 0.565 -2.3158 0.4082
                        CHANNELS 6 Xposition Yposition Zposition Zrotation Xrotation Yrotation
                        End Site
                        {
                          OFFSET 0.4919 -1.6479 0.2673
                        }
                      }
                    }
                  }
                  JOINT RightFinger2
                  {
                    OFFSET -0.916 -9.2044 0.2193
                    CHANNELS 6 Xposition Yposition Zposition Zrotation Xrotation Yrotation
                    JOINT RightFinger21
                    {
                      OFFSET -0.0117 -4.1944 -0.0248
                      CHANNELS 6 Xposition Yposition Zposition Zrotation Xrotation Yrotation
                      JOINT RightFinger22
                      {
                        OFFSET -0.0071 -2.3249 -0.0142
                        CHANNELS 6 Xposition Yposition Zposition Zrotation Xrotation Yrotation
                        End Site
                        {
                          OFFSET 0.1475 -2.0882 0.0028
                        }
                      }
                    }
                  }
                  JOINT RightFinger3
                  {
                    OFFSET -0.6113 -8.7231 -2.0637
                    CHANNELS 6 Xposition Yposition Zposition Zrotation Xrotation Yrotation
                    JOINT RightFinger31
                    {
                      OFFSET 0.1927 -3.8059 -0.2383
                      CHANNELS 6 Xposition Yposition Zposition Zrotation Xrotation Yrotation
                      JOINT RightFinger32
                      {
                        OFFSET 0.1091 -2.1688 -0.1362
                        CHANNELS 6 Xposition Yposition Zposition Zrotation Xrotation Yrotation
                        End Site
                        {
                          OFFSET 0.2358 -1.9176 -0.0906
                        }
                      }
                    }
                  }
                  JOINT RightFinger4
                  {
                    OFFSET 0.6151 -8.0947 -3.564
                    CHANNELS 6 Xposition Yposition Zposition Zrotation Xrotation Yrotation
                    JOINT RightFinger41
                    {
                      OFFSET 0.4882 -2.341 -0.6462
                      CHANNELS 6 Xposition Yposition Zposition Zrotation Xrotation Yrotation
                      JOINT RightFinger42
                      {
                        OFFSET 0.3574 -1.7166 -0.4742
                        CHANNELS 6 Xposition Yposition Zposition Zrotation Xrotation Yrotation
                        End Site
                        {
                          OFFSET 0.4187 -1.5237 -0.3496
                        }
                      }
                    }
                  }
                  JOINT RightFinger0
                  {
                    OFFSET 1.4199 -1.8761 1.4221
                    CHANNELS 6 Xposition Yposition Zposition Zrotation Xrotation Yrotation
                    JOINT RightFinger01
                    {
                      OFFSET 1.1472 -3.4929 2.6336
                      CHANNELS 6 Xposition Yposition Zposition Zrotation Xrotation Yrotation
                      JOINT RightFinger02
                      {
                        OFFSET 0.8229 -2.3 1.6571
                        CHANNELS 6 Xposition Yposition Zposition Zrotation Xrotation Yrotation
                        End Site
                        {
                          OFFSET 0.5822 -1.6914 1.1582
                        }
                      }
                    }
                  }
                }
              }
            }
          }
        }
      }
    }
    JOINT RightHip
    {
      OFFSET -9.412 3.9771 -0.7758
      CHANNELS 6 Xposition Yposition Zposition Zrotation Xrotation Yrotation
      JOINT RightKnee
      {
        OFFSET -0.7531 -40.938 0
        CHANNELS 6 Xposition Yposition Zposition Zrotation Xrotation Yrotation
        JOINT RightAnkle
        {
          OFFSET 0 -40.1986 0
          CHANNELS 6 Xposition Yposition Zposition Zrotation Xrotation Yrotation
          JOINT RightToe
          {
            OFFSET 0 -4.4182 9.239
            CHANNELS 6 Xposition Yposition Zposition Zrotation Xrotation Yrotation
            End Site
            {
              OFFSET 0 0 6.1981
            }
          }
        }
      }
    }
    JOINT LeftHip
    {
      OFFSET 9.4119 3.9773 -0.7758
      CHANNELS 6 Xposition Yposition Zposition Zrotation Xrotation Yrotation
      JOINT LeftKnee
      {
        OFFSET 0.7532 -40.9383 0
        CHANNELS 6 Xposition Yposition Zposition Zrotation Xrotation Yrotation
        JOINT LeftAnkle
        {
          OFFSET 0 -40.1986 0
          CHANNELS 6 Xposition Yposition Zposition Zrotation Xrotation Yrotation
          JOINT LeftToe
          {
            OFFSET 0 -4.4182 9.239
            CHANNELS 6 Xposition Yposition Zposition Zrotation Xrotation Yrotation
            End Site
            {
              OFFSET 0 0 6.1981
            }
          }
        }
      }
    }
  }
}
MOTION
Frames:	4
Frame Time:	0.0333333
6.19786 0.88092 -3.1721 0 0 -0 4.44089e-015 78.7191 0 -5.63662 -6.13389 -15.4159 -6.66134e-016 8.7983 -4.7612 -0.0691255 4.56817 1.98412 0 8.0291 0.4195 -0.298896 9.13117 3.99291 0 9.9351 -2.2114 -0.298898 9.1312 3.99292 -1.33227e-015 22.3885 -0.4656 -3.77671 0.287091 -1.00328 -0.0001 12.643 3.4389 3.1032 6.15285 4.28519 2.2603 21.606 7.4023 7.46037 3.57789 -10.5782 13.5163 -1.1332 -5.0146 17.5389 -44.1936 4.1939 -0.0995 -28.05 -0.2431 -102.113 -62.908 -62.3901 0.0679 -23.3996 -0.1402 -5.16762 -40.9214 68.7194 0.7932 -9.069 2.5189 -18.1113 21.9465 -0.773167 -0.8272 -3.3923 0.5977 -14.1394 8.76529 0.327866 -0.5649 -2.3158 0.4082 -15.8736 9.81228 0.516744 0.9159 -9.2044 0.2193 -13.5529 11.3752 -1.24344 0.0117 -4.1944 -0.0248 -20.1934 14.8943 0.17149 0.0071 -2.3249 -0.0142 -17.9448 11.2777 0.0057469 0.6113 -8.7231 -2.0637 -13.047 9.79686 1.42689 -0.1927 -3.8059 -0.2383 -19.3101 13.4049 -0.294244 -0.1091 -2.1688 -0.1362 -16.8942 11.7608 -0.506849 -0.6151 -8.0947 -3.5641 -14.1111 9.58734 2.52376 -0.4882 -2.341 -0.6462 -17.5278 12.1318 -1.07062 -0.3575 -1.7167 -0.4742 -17.6487 12.2253 -1.0959 -1.42 -1.8761 1.4223 1.58232 11.3189 -4.05448 -1.1471 -3.4929 2.6334 -0.757473 -0.742114 0.181123 -0.823 -2.3 1.6571 7.81373 9.8647 -2.76933 -2.2603 21.606 7.4023 -5.07983 2.0759 6.07263 -13.5187 -1.1334 -5.0155 -6.61579 -26.1844 -6.12756 0.0994 -28.0499 -0.2431 111.001 -63.5125 73.4186 -0.0679 -23.3996 -0.1402 28.0344 -4.93954 -44.6042 -0.7932 -9.0691 2.5189 11.6478 14.2793 0.992721 0.8272 -3.3923 0.5977 44.2764 13.1569 -6.11043 0.565 -2.3158 0.4082 45.4007 13.4028 -6.38545 -0.916 -9.2044 0.2193 8.23188 3.84938 -1.32803 -0.0117 -4.1944 -0.0248 54.3243 16.0237 -6.8901 -0.0071 -2.3249 -0.0142 17.0482 5.76075 -0.455558 -0.6113 -8.7231 -2.0637 14.624 7.50092 -5.72251 0.1927 -3.8059 -0.2383 22.7335 8.74812 -0.464787 0.1091 -2.1688 -0.1362 24.4336 9.37548 -0.63732 0.6151 -8.0947 -3.564 -7.94122 4.09989 -6.82249 0.4882 -2.341 -0.6462 27.2842 10.2988 -0.14531 0.3574 -1.7166 -0.4742 16.9169 6.42884 0.492733 1.4199 -1.8761 1.4221 14.7973 -21.5799 48.7788 1.1472 -3.4929 2.6336 1.77046 -0.314221 -1.87066 0.8229 -2.3 1.6571 -5.87581 12.1694 4.52472 -9.412 3.9771 -0.7758 1.32119 17.9396 35.7637 -0.7531 -40.938 0 -5.96073 0.0275725 -20.9151 0 -40.1986 -3.55271e-015 -5.10042 1.05367 -13.4241 1.77636e-015 -4.4182 9.239 7.50262 -15.4778 3.5351 9.4119 3.9773 -0.7758 0.898195 7.95186 -15.2739 0.7532 -40.9383 0 0.440359 2.49331 1.87338 0 -40.1986 1.77636e-015 2.44669 -2.33603 1.08272 0 -4.4182 9.239 7.53551e-006 -3.68328e-005 3.20519e-005 
6.06223 0.873863 -3.02989 0 0 -0 4.44089e-015 78.7191 0 -5.6449 -6.16148 -15.5014 0 8.7983 -4.7612 -0.0624289 4.53211 2.14098 -6.66134e-016 8.0291 0.4195 -0.296678 9.05868 4.30724 -1.33227e-015 9.9351 -2.2114 -0.29668 9.05871 4.30724 -2.22045e-015 22.3885 -0.4656 -3.61662 -1.1449 -0.684115 -0.0001 12.643 3.4389 3.30774 4.87983 4.66879 2.2603 21.606 7.4023 7.46039 3.57785 -10.5783 13.5163 -1.1332 -5.0146 17.0203 -43.898 2.66983 -0.0995 -28.05 -0.2431 -102.114 -62.9081 -62.3902 0.0679 -23.3996 -0.1402 -5.16754 -40.9214 68.7195 0.7932 -9.069 2.5189 -16.6316 20.7052 -1.15168 -0.8272 -3.3923 0.5977 -12.8358 7.97153 0.207177 -0.5649 -2.3158 0.4082 -14.6497 9.07441 0.380374 0.915899 -9.2044 0.2193 -12.3882 10.4519 -1.75461 0.0117 -4.1944 -0.0248 -19.4378 14.0116 0.100304 0.0071 -2.3249 -0.0142 -17.0182 10.708 -0.0813254 0.6113 -8.7231 -2.0637 -11.9507 8.88335 1.02778 -0.1927 -3.8059 -0.2383 -18.4734 12.8381 -0.375868 -0.1091 -2.1688 -0.1362 -15.9862 11.1371 -0.568502 -0.6151 -8.0947 -3.5641 -13.0509 8.58245 2.00853 -0.4882 -2.341 -0.6462 -16.7168 11.5733 -1.1039 -0.3575 -1.7167 -0.4742 -16.7797 11.6272 -1.13249 -1.42 -1.8761 1.4223 2.10506 10.9798 -3.77285 -1.1471 -3.4929 2.6334 -1.13559 -0.630442 0.22425 -0.823 -2.3 1.6571 6.90411 8.76595 -2.38659 -2.2603 21.606 7.4023 -5.07983 2.07587 6.07259 -13.5187 -1.1334 -5.0155 -6.99875 -24.8793 -6.63525 0.0994 -28.0499 -0.2431 113.603 -63.0536 75.652 -0.0679 -23.3996 -0.1402 27.6948 -4.16487 -45.0399 -0.7932 -9.0691 2.5189 11.6477 14.2793 0.992735 0.8272 -3.3923 0.5977 44.2764 13.1569 -6.11041 0.565 -2.3158 0.4082 45.3983 13.4022 -6.38489 -0.916 -9.2044 0.2193 9.24289 4.16368 -1.37326 -0.0117 -4.1944 -0.0248 55.3878 16.2364 -7.16203 -0.0071 -2.3249 -0.0142 18.0533 6.09116 -0.535588 -0.6113 -8.7231 -2.0637 15.6469 7.78287 -5.80683 0.1927 -3.8059 -0.2383 23.7323 9.11798 -0.564403 0.1091 -2.1688 -0.1362 25.4292 9.74002 -0.747508 0.6151 -8.0947 -3.564 -6.94874 4.34289 -6.82887 0.4882 -2.341 -0.6462 28.2816 10.6605 -0.243533 0.3574 -1.7166 -0.4742 17.9024 6.80308 0.462585 1.4199 -1.8761 1.4221 15.249 -21.7245 48.8317 1.1472 -3.4929 2.6336 1.62013 -0.367483 -1.72854 0.8229 -2.3 1.6571 -6.433 13.1683 4.97322 -9.412 3.9771 -0.7758 1.1161 18.1626 34.2381 -0.7531 -40.938 0 -5.65521 -0.154315 -19.057 -8.88178e-016 -40.1986 0 -4.99681 0.434156 -12.1976 0 -4.4182 9.239 6.55035 -15.5464 1.94261 9.4119 3.9773 -0.7758 0.940888 8.09991 -15.2831 0.7532 -40.9383 0 0.452175 2.52619 1.92008 0 -40.1986 0 2.40718 -2.49297 1.12881 1.77636e-015 -4.4182 9.239 3.3412e-006 -2.20387e-005 4.74703e-005 
5.91487 0.86261 -2.86199 0 0 -0 4.44089e-015 78.7191 0 -5.65661 -6.19028 -15.6204 -4.44089e-016 8.7983 -4.7612 -0.0565249 4.4918 2.30909 1.11022e-015 8.0291 0.4195 -0.296565 8.97762 4.64416 -4.44089e-016 9.9351 -2.2114 -0.296568 8.97764 4.64417 1.33227e-015 22.3885 -0.4656 -3.41621 -2.73226 -0.305628 -0.0001 12.643 3.4389 3.57093 3.44752 5.11729 2.2603 21.606 7.4023 7.46035 3.57785 -10.5782 13.5163 -1.1332 -5.0146 16.5065 -43.5536 1.09769 -0.0995 -28.05 -0.2431 -102.113 -62.9079 -62.3901 0.0679 -23.3996 -0.1402 -5.16768 -40.9214 68.7193 0.7932 -9.069 2.5189 -14.9425 19.2706 -1.55639 -0.8272 -3.3923 0.5977 -11.3458 7.05588 0.0925593 -0.5649 -2.3158 0.4082 -13.2461 8.22174 0.243486 0.9159 -9.2044 0.2193 -11.0537 9.39092 -2.31984 0.0117 -4.1944 -0.0248 -18.569 12.9941 0.0243289 0.0071 -2.3249 -0.0142 -15.9513 10.0485 -0.170108 0.6113 -8.7231 -2.0637 -10.6906 7.82308 0.597707 -0.1927 -3.8059 -0.2383 -17.5085 12.1808 -0.459558 -0.1091 -2.1688 -0.1362 -14.9411 10.4159 -0.627006 -0.6151 -8.0947 -3.5641 -11.8357 7.42868 1.43289 -0.4882 -2.341 -0.6462 -15.7814 10.927 -1.13221 -0.3575 -1.7167 -0.4742 -15.7983 10.9391 -1.13184 -1.42 -1.8761 1.4223 2.70817 10.5928 -3.44736 -1.1471 -3.4929 2.6334 -1.57084 -0.50503 0.265486 -0.823 -2.3 1.6571 5.86583 7.50517 -1.96939 -2.2603 21.606 7.4023 -5.07982 2.07585 6.07253 -13.5187 -1.1334 -5.0155 -7.39336 -23.4595 -7.13445 0.0994 -28.0499 -0.2431 116.484 -62.473 78.1104 -0.0679 -23.3996 -0.1402 27.3012 -3.27136 -45.5404 -0.7932 -9.0691 2.5189 11.6477 14.2793 0.992802 0.8272 -3.3923 0.5977 44.2764 13.1569 -6.11041 0.565 -2.3158 0.4082 45.396 13.4017 -6.38433 -0.916 -9.2044 0.2193 10.2546 4.47714 -1.42403 -0.0117 -4.1944 -0.0248 56.4535 16.4442 -7.43834 -0.0071 -2.3249 -0.0142 19.0562 6.41905 -0.621197 -0.6113 -8.7231 -2.0637 16.671 8.06326 -5.89633 0.1927 -3.8059 -0.2383 24.7329 9.48612 -0.670673 0.1091 -2.1688 -0.1362 26.4266 10.1026 -0.86423 0.6151 -8.0947 -3.564 -5.8229 4.64555 -6.82387 0.4882 -2.341 -0.6462 29.2809 11.0206 -0.348306 0.3574 -1.7166 -0.4742 18.8889 7.17675 0.425941 1.4199 -1.8761 1.4221 15.64 -21.8177 48.8109 1.1472 -3.4929 2.6336 1.45156 -0.428648 -1.56199 0.8229 -2.3 1.6571 -7.05751 14.285 5.48716 -9.412 3.9771 -0.7758 0.802872 17.8699 32.4177 -0.7531 -40.938 3.55272e-015 -4.94256 0.00147731 -16.8161 0 -40.1986 0 -4.86166 -0.239333 -10.7205 -1.77636e-015 -4.4182 9.239 5.46085 -15.5232 0.105713 9.4119 3.9773 -0.7758 0.972778 8.24512 -15.2901 0.7532 -40.9383 0 0.468182 2.62468 1.98459 1.77636e-015 -40.1986 0 2.3677 -2.70696 1.19184 1.77636e-015 -4.4182 9.239 -2.18513e-005 -3.17624e-005 6.56159e-005 
5.76042 0.846474 -2.66981 0 0 -0 4.44089e-015 78.7191 0 -5.66916 -6.22041 -15.7517 6.66134e-016 8.7983 -4.7612 -0.0507213 4.4476 2.48437 -1.11022e-015 8.0291 0.4195 -0.296791 8.88879 4.99538 6.66134e-016 9.9351 -2.2114 -0.29679 8.88881 4.9954 -1.33227e-015 22.3885 -0.4656 -3.19756 -4.33205 0.0946685 -0.0001 12.643 3.4389 3.86228 1.95797 5.58604 2.2603 21.606 7.4023 7.46035 3.57787 -10.5782 13.5163 -1.1332 -5.0146 16.0394 -43.1737 -0.375622 -0.0995 -28.05 -0.2431 -102.114 -62.9078 -62.3904 0.0679 -23.3996 -0.1402 -5.16767 -40.9214 68.7193 0.7932 -9.069 2.5189 -13.2783 17.8255 -1.91315 -0.8272 -3.3923 0.5977 -9.86027 6.13759 0.00216274 -0.5649 -2.3158 0.4082 -11.8473 7.36603 0.127999 0.9159 -9.2044 0.2193 -9.73381 8.31732 -2.85832 0.0117 -4.1944 -0.0248 -17.6941 11.969 -0.0458689 0.0071 -2.3249 -0.0142 -14.8876 9.38737 -0.246237 0.6113 -8.7231 -2.0637 -9.44147 6.75374 0.192193 -0.1927 -3.8059 -0.2383 -16.5469 11.5222 -0.531708 -0.1091 -2.1688 -0.1362 -13.8991 9.69386 -0.67202 -0.6151 -8.0947 -3.5641 -10.6352 6.26315 0.883393 -0.4882 -2.341 -0.6462 -14.8483 10.2803 -1.14975 -0.3575 -1.7167 -0.4742 -14.7873 10.249 -1.18223 -1.42 -1.8761 1.4223 3.31279 10.2092 -3.11819 -1.1471 -3.4929 2.6334 -2.00779 -0.382186 0.297939 -0.823 -2.3 1.6571 4.83958 6.23713 -1.57635 -2.2603 21.606 7.4023 -5.0798 2.07587 6.07249 -13.5187 -1.1334 -5.0155 -7.7566 -22.0477 -7.57347 0.0994 -28.0499 -0.2431 119.252 -61.8378 80.4552 -0.0679 -23.3996 -0.1402 26.8959 -2.37193 -46.0447 -0.7932 -9.0691 2.5189 11.6477 14.2793 0.992916 0.8272 -3.3923 0.5977 44.2764 13.1569 -6.1104 0.565 -2.3158 0.4082 45.3937 13.4012 -6.38376 -0.916 -9.2044 0.2193 11.2031 4.76058 -1.47786 -0.0117 -4.1944 -0.0248 57.4009 16.6244 -7.68709 -0.0071 -2.3249 -0.0142 19.9765 6.7183 -0.704788 -0.6113 -8.7231 -2.0637 17.6179 8.31629 -5.97391 0.1927 -3.8059 -0.2383 25.6642 9.8265 -0.775351 0.1091 -2.1688 -0.1362 27.3314 10.4292 -0.975546 0.6151 -8.0947 -3.564 -4.69657 4.94824 -6.82482 0.4882 -2.341 -0.6462 30.1872 11.345 -0.448752 0.3574 -1.7166 -0.4742 19.7924 7.51804 0.386721 1.4199 -1.8761 1.4221 15.9608 -21.8707 48.7449 1.1472 -3.4929 2.6336 1.28707 -0.489912 -1.39161 0.8229 -2.3 1.6571 -7.69558 15.3962 6.01634 -9.412 3.9771 -0.7758 0.484924 17.8934 30.4233 -0.7531 -40.938 -3.55271e-015 -4.39605 -0.0228472 -14.4756 0 -40.1986 0 -4.6571 -1.01431 -9.15521 0 -4.4182 9.239 4.37988 -15.3682 -1.74135 9.4119 3.9773 -0.7758 0.996748 8.3946 -15.2954 0.7532 -40.9383 1.77636e-015 0.485761 2.75997 2.05721 1.77636e-015 -40.1986 -1.77636e-015 2.33144 -2.95833 1.25974 1.77636e-015 -4.4182 9.239 -5.51999e-005 -3.47025e-005 0.000125183 
